<svg xmlns="http://www.w3.org/2000/svg" width="401" height="349" viewBox="0 0 401 349">
    <path fill="#502F7E" fill-rule="nonzero" d="M8 40.866c.002.998.006 1.994.012 2.987a1 1 0 1 1-2 .012 686.98 686.98 0 0 1-.011-3H1a1 1 0 1 1 0-2h12a1 1 0 1 1 0 2H8zM302.5 0l-5.982 14.464-9.179-10.571L302.5 0zM6.106 51.886a1 1 0 1 1 2-.035c.024 1.345.051 2.686.084 4.022a1 1 0 0 1-2 .048c-.032-1.34-.06-2.685-.084-4.035zM6.43 63.87a1 1 0 0 1 1.999-.074c.049 1.334.101 2.662.158 3.985a1 1 0 1 1-1.998.086 615.82 615.82 0 0 1-.159-3.997zm.558 12.013a1 1 0 1 1 1.997-.113c.075 1.336.155 2.666.239 3.992a1 1 0 1 1-1.996.127c-.084-1.33-.164-2.666-.24-4.006zm.805 12.017a1 1 0 0 1 1.994-.155c.104 1.333.212 2.662.325 3.984a1 1 0 0 1-1.993.17c-.113-1.328-.222-2.66-.326-4zM8.86 99.892a1 1 0 0 1 1.99-.2c.133 1.327.27 2.648.413 3.963a1 1 0 0 1-1.988.216c-.143-1.32-.281-2.647-.415-3.979zm1.341 11.943a1 1 0 1 1 1.985-.247c.166 1.33.337 2.656.512 3.975a1 1 0 1 1-1.982.264 482.616 482.616 0 0 1-.515-3.992zm1.638 11.916a1 1 0 1 1 1.977-.298c.198 1.314.4 2.621.608 3.922a1 1 0 0 1-1.975.315c-.208-1.307-.412-2.62-.61-3.939zm1.947 11.856a1 1 0 0 1 1.97-.35 421 421 0 0 0 .722 3.94 1 1 0 0 1-1.966.37c-.247-1.313-.489-2.633-.726-3.96zm2.284 11.812a1 1 0 1 1 1.957-.409c.273 1.306.55 2.604.834 3.896a1 1 0 0 1-1.954.428 395.02 395.02 0 0 1-.837-3.915zm2.635 11.726a1 1 0 0 1 1.944-.469c.313 1.298.632 2.588.957 3.87a1 1 0 0 1-1.94.49c-.326-1.289-.646-2.586-.961-3.89zm3.028 11.692a1 1 0 1 1 1.927-.534c.355 1.28.716 2.554 1.083 3.82a1 1 0 0 1-1.921.556 342.812 342.812 0 0 1-1.09-3.842zm3.414 11.52a1 1 0 1 1 1.907-.604c.402 1.27.809 2.53 1.222 3.782a1 1 0 1 1-1.899.627c-.416-1.26-.826-2.529-1.23-3.805zm3.843 11.388a1 1 0 0 1 1.882-.676c.452 1.258.91 2.507 1.375 3.747a1 1 0 0 1-1.872.702c-.468-1.249-.93-2.506-1.385-3.773zm4.303 11.243a1 1 0 1 1 1.853-.754 272.928 272.928 0 0 0 1.53 3.682 1 1 0 0 1-1.841.78 274.907 274.907 0 0 1-1.542-3.708zm4.8 11.076a1 1 0 0 1 1.816-.837 253.13 253.13 0 0 0 1.698 3.61 1 1 0 1 1-1.803.866 255.118 255.118 0 0 1-1.712-3.64zm5.295 10.808a1 1 0 0 1 1.774-.923c.614 1.18 1.235 2.348 1.863 3.506a1 1 0 1 1-1.758.953 236.907 236.907 0 0 1-1.879-3.536zm5.86 10.578a1 1 0 0 1 1.723-1.016c.677 1.15 1.361 2.287 2.053 3.413a1 1 0 1 1-1.705 1.047 220.156 220.156 0 0 1-2.071-3.444zm6.402 10.208a1 1 0 1 1 1.663-1.11c.738 1.106 1.483 2.2 2.236 3.28a1 1 0 1 1-1.642 1.143 205.05 205.05 0 0 1-2.257-3.313zm6.99 9.83a1 1 0 0 1 1.595-1.208 189.538 189.538 0 0 0 2.437 3.147 1 1 0 0 1-1.568 1.241 191.538 191.538 0 0 1-2.463-3.18zm7.588 9.373a1 1 0 1 1 1.513-1.308c.873 1.01 1.753 2.005 2.641 2.986a1 1 0 1 1-1.483 1.342 179.64 179.64 0 0 1-2.67-3.02zm8.206 8.861a1 1 0 0 1 1.42-1.409c.934.943 1.877 1.87 2.827 2.782a1 1 0 1 1-1.386 1.443 169.365 169.365 0 0 1-2.861-2.816zm8.796 8.248a1 1 0 0 1 1.314-1.508c1.004.874 2.015 1.733 3.033 2.576a1 1 0 1 1-1.275 1.54 160.668 160.668 0 0 1-3.072-2.608zm9.394 7.577a1 1 0 0 1 1.195-1.604c1.064.793 2.135 1.569 3.212 2.328a1 1 0 1 1-1.153 1.635 153.488 153.488 0 0 1-3.254-2.359zm9.97 6.83a1 1 0 0 1 1.063-1.694c1.126.707 2.258 1.396 3.397 2.068a1 1 0 1 1-1.017 1.722 147.718 147.718 0 0 1-3.443-2.096zm10.488 5.996a1 1 0 0 1 .92-1.776c1.178.61 2.362 1.202 3.55 1.776a1 1 0 0 1-.868 1.801 143.238 143.238 0 0 1-3.602-1.801zm10.958 5.098a1 1 0 1 1 .766-1.848c1.227.508 2.46.998 3.696 1.469a1 1 0 0 1-.712 1.869 139.84 139.84 0 0 1-3.75-1.49zm11.373 4.14a1 1 0 1 1 .601-1.907c1.266.4 2.535.78 3.807 1.14a1 1 0 0 1-.545 1.924c-1.291-.366-2.579-.751-3.863-1.156zm11.691 3.127a1 1 0 0 1 .43-1.953c1.294.285 2.588.55 3.885.795a1 1 0 0 1-.372 1.965c-1.316-.249-2.63-.518-3.943-.807zm11.927 2.071a1 1 0 0 1 .253-1.984c1.317.168 2.633.316 3.95.443a1 1 0 0 1-.193 1.99c-1.336-.129-2.673-.279-4.01-.449zm12.067.982a1 1 0 1 1 .07-1.999c1.327.047 2.65.073 3.972.079a1 1 0 0 1-.008 2 130.725 130.725 0 0 1-4.034-.08zm12.096-.135a1 1 0 0 1-.116-1.997c1.324-.077 2.645-.174 3.96-.293a1 1 0 1 1 .179 1.992c-1.336.12-2.678.22-4.023.298zm12.043-1.279a1 1 0 1 1-.307-1.976c1.31-.204 2.614-.428 3.91-.673a1 1 0 1 1 .371 1.965c-1.317.249-2.642.477-3.974.684zm11.842-2.447a1 1 0 1 1-.503-1.936 114.52 114.52 0 0 0 3.82-1.063 1 1 0 1 1 .57 1.917c-1.284.382-2.58.742-3.887 1.082zm11.553-3.66a1 1 0 1 1-.706-1.872 106.27 106.27 0 0 0 3.683-1.468 1 1 0 1 1 .775 1.844 108.27 108.27 0 0 1-3.752 1.495zm11.07-4.912a1 1 0 1 1-.916-1.778 96.218 96.218 0 0 0 3.48-1.886 1 1 0 0 1 .99 1.739 98.22 98.22 0 0 1-3.553 1.925zm10.408-6.227a1 1 0 0 1-1.137-1.646 84.855 84.855 0 0 0 3.2-2.322 1 1 0 1 1 1.213 1.59 86.856 86.856 0 0 1-3.276 2.378zm9.476-7.608a1 1 0 0 1-1.366-1.46c.97-.907 1.906-1.83 2.81-2.772a1 1 0 1 1 1.443 1.386 75.127 75.127 0 0 1-2.887 2.846zm8.18-9.036a1 1 0 1 1-1.594-1.207 62.376 62.376 0 0 0 2.276-3.211 1 1 0 0 1 1.668 1.104 64.375 64.375 0 0 1-2.35 3.314zm6.357-10.341a1 1 0 0 1-1.8-.87 54.245 54.245 0 0 0 1.578-3.596 1 1 0 0 1 1.86.737 56.245 56.245 0 0 1-1.638 3.729zm4.046-11.447a1 1 0 1 1-1.949-.449c.294-1.275.538-2.56.731-3.853a1 1 0 0 1 1.978.296c-.2 1.344-.454 2.68-.76 4.006zm1.33-12.164a1 1 0 1 1-2 .005 158.636 158.636 0 0 0-.06-3.98 1 1 0 1 1 1.999-.056c.037 1.329.058 2.673.061 4.03zm-.5-12.06a1 1 0 0 1-1.994.164c-.11-1.332-.239-2.647-.386-3.944a1 1 0 1 1 1.988-.225c.149 1.317.28 2.652.391 4.004zm-1.562-12.002a1 1 0 1 1-1.968.357c-.239-1.32-.499-2.616-.779-3.89a1 1 0 1 1 1.954-.428c.285 1.297.55 2.618.793 3.961zm-2.851-11.792a1 1 0 1 1-1.91.59 84.036 84.036 0 0 0-1.257-3.752 1 1 0 0 1 1.881-.68c.452 1.25.881 2.531 1.286 3.842zm-4.432-11.303a1 1 0 0 1-1.797.878 63.489 63.489 0 0 0-1.836-3.484 1 1 0 0 1 1.74-.988 65.489 65.489 0 0 1 1.893 3.594zm-6.42-10.403a1 1 0 1 1-1.578 1.23 46.07 46.07 0 0 0-2.535-2.986 1 1 0 1 1 1.467-1.359c.909.98 1.791 2.02 2.645 3.115zm-8.74-8.54a1 1 0 0 1-1.17 1.623 33.185 33.185 0 0 0-3.278-2.085 1 1 0 0 1 .97-1.748 35.184 35.184 0 0 1 3.477 2.21zm-11.19-5.254a1 1 0 0 1-.473 1.943 26.467 26.467 0 0 0-3.801-.637 1 1 0 0 1 .185-1.992c1.37.128 2.735.357 4.089.686zm-12.433-.21a1 1 0 1 1 .409 1.959 27.49 27.49 0 0 0-3.712 1.053 1 1 0 1 1-.679-1.881 29.49 29.49 0 0 1 3.982-1.13zm-11.36 4.936a1 1 0 1 1 1.127 1.652 36.01 36.01 0 0 0-3.09 2.366 1 1 0 1 1-1.298-1.52 38.01 38.01 0 0 1 3.26-2.498zm-8.845 8.253a1 1 0 1 1 1.551 1.263 50.025 50.025 0 0 0-2.35 3.137 1 1 0 0 1-1.646-1.136 52.024 52.024 0 0 1 2.445-3.264zm-6.605 10.284a1 1 0 0 1 1.783.905 68.319 68.319 0 0 0-1.68 3.565 1 1 0 1 1-1.833-.8 70.318 70.318 0 0 1 1.73-3.67zm-4.596 11.283a1 1 0 1 1 1.904.612 89.6 89.6 0 0 0-1.126 3.791 1 1 0 0 1-1.93-.527 91.6 91.6 0 0 1 1.152-3.876zm-2.972 11.776a1 1 0 1 1 1.965.374 113.168 113.168 0 0 0-.673 3.908 1 1 0 0 1-1.976-.305c.208-1.347.436-2.672.684-3.977zm-1.659 12.015a1 1 0 0 1 1.992.179 138.639 138.639 0 0 0-.298 3.96 1 1 0 1 1-1.996-.122c.083-1.356.184-2.695.302-4.017zm-.578 12.09a1 1 0 1 1 2 .017c-.004.456-.006.913-.006 1.372 0 .864.017 1.726.052 2.586a1 1 0 0 1-1.998.08 66.132 66.132 0 0 1-.054-2.666c0-.464.002-.927.006-1.389zm.87 12.137a1 1 0 1 1 1.973-.323c.211 1.293.462 2.583.75 3.87a1 1 0 0 1-1.951.438 68.71 68.71 0 0 1-.773-3.985zm3.005 11.804a1 1 0 1 1 1.89-.656c.43 1.238.896 2.47 1.397 3.698a1 1 0 1 1-1.851.756 75.73 75.73 0 0 1-1.436-3.798zm4.866 11.108a1 1 0 1 1 1.766-.938 84.203 84.203 0 0 0 1.94 3.453 1 1 0 0 1-1.72 1.02 86.204 86.204 0 0 1-1.986-3.535zm6.43 10.322a1 1 0 0 1 1.624-1.167 97.04 97.04 0 0 0 2.38 3.173 1 1 0 1 1-1.575 1.232 99.041 99.041 0 0 1-2.43-3.238zm7.666 9.422a1 1 0 0 1 1.477-1.349c.886.97 1.796 1.93 2.728 2.88a1 1 0 1 1-1.427 1.4 112.857 112.857 0 0 1-2.778-2.93zm8.607 8.478a1 1 0 0 1 1.33-1.494c.981.873 1.982 1.736 3.002 2.586a1 1 0 1 1-1.282 1.536 126.199 126.199 0 0 1-3.05-2.628zm9.379 7.587a1 1 0 0 1 1.185-1.61c1.063.781 2.141 1.551 3.235 2.308a1 1 0 1 1-1.138 1.644 137.81 137.81 0 0 1-3.282-2.342zm10.051 6.746a1 1 0 0 1 1.043-1.706c1.129.69 2.27 1.365 3.423 2.027a1 1 0 0 1-.996 1.735 146.617 146.617 0 0 1-3.47-2.056zm10.562 5.876a1 1 0 1 1 .9-1.786c1.18.595 2.37 1.176 3.568 1.74a1 1 0 0 1-.853 1.81c-1.214-.573-2.42-1.161-3.615-1.764zm11.012 5.016a1 1 0 1 1 .757-1.851c1.228.502 2.462.987 3.702 1.456a1 1 0 0 1-.707 1.87 152.71 152.71 0 0 1-3.752-1.475zm11.386 4.132a1 1 0 0 1 .607-1.906c1.264.402 2.53.787 3.8 1.153a1 1 0 0 1-.554 1.922 149.536 149.536 0 0 1-3.853-1.17zm11.653 3.192a1 1 0 1 1 .448-1.95c1.295.299 2.59.578 3.886.837a1 1 0 1 1-.393 1.961 142.604 142.604 0 0 1-3.941-.848zm11.87 2.2a1 1 0 1 1 .277-1.98c1.317.185 2.631.349 3.942.493a1 1 0 0 1-.218 1.988c-1.33-.146-2.665-.313-4.002-.5zm12.053 1.127a1 1 0 0 1 .09-1.998c1.33.06 2.652.098 3.967.114a1 1 0 0 1-.024 2 120.765 120.765 0 0 1-4.033-.116zm12.078-.067a1 1 0 1 1-.117-1.996c1.328-.078 2.646-.18 3.954-.305a1 1 0 0 1 .192 1.99c-1.334.129-2.677.232-4.03.311zm12.003-1.391a1 1 0 0 1-.347-1.97c1.306-.23 2.6-.487 3.88-.769a1 1 0 1 1 .43 1.953 95.89 95.89 0 0 1-3.963.786zm11.79-2.878a1 1 0 0 1-.604-1.906c1.262-.4 2.508-.827 3.737-1.281a1 1 0 0 1 .693 1.876 85.327 85.327 0 0 1-3.827 1.311zm11.306-4.507a1 1 0 1 1-.878-1.797 75.512 75.512 0 0 0 3.5-1.823 1 1 0 0 1 .97 1.748 77.513 77.513 0 0 1-3.592 1.872zm10.479-6.195a1 1 0 1 1-1.154-1.634 71.343 71.343 0 0 0 3.155-2.363 1 1 0 0 1 1.243 1.567c-1.059.84-2.14 1.65-3.244 2.43zm9.345-7.851a1 1 0 1 1-1.41-1.419 71.415 71.415 0 0 0 2.72-2.857 1 1 0 0 1 1.486 1.338 73.414 73.414 0 0 1-2.796 2.938zm7.905-9.275a1 1 0 0 1-1.622-1.17 76.046 76.046 0 0 0 2.225-3.261 1 1 0 1 1 1.68 1.084 78.045 78.045 0 0 1-2.283 3.347zm6.341-10.388a1 1 0 0 1-1.78-.913 85.285 85.285 0 0 0 1.722-3.56 1 1 0 1 1 1.82.83 87.285 87.285 0 0 1-1.762 3.643zm4.79-11.147a1 1 0 1 1-1.884-.669 98.974 98.974 0 0 0 1.249-3.757 1 1 0 1 1 1.91.593 100.974 100.974 0 0 1-1.274 3.833zm3.376-11.621a1 1 0 1 1-1.949-.45c.295-1.276.57-2.569.828-3.88a1 1 0 1 1 1.962.384 118.864 118.864 0 0 1-.841 3.946zm2.136-11.888a1 1 0 1 1-1.983-.261c.171-1.3.326-2.614.462-3.945a1 1 0 1 1 1.99.205c-.139 1.35-.295 2.683-.469 4.001zm1.076-12a1 1 0 0 1-1.998-.1 164.1 164.1 0 0 0 .15-3.972 1 1 0 1 1 2 .051 166.099 166.099 0 0 1-.152 4.022zm.175-12.05a1 1 0 1 1-2 .038 172.517 172.517 0 0 0-.123-3.98 1 1 0 0 1 1.998-.086c.057 1.335.098 2.677.125 4.027zm-.66-12.06a1 1 0 1 1-1.991.181c-.12-1.323-.257-2.638-.408-3.945a1 1 0 1 1 1.987-.23c.153 1.323.29 2.655.412 3.994zm-1.548-11.993a1 1 0 0 1-1.972.333c-.221-1.314-.459-2.62-.713-3.917a1 1 0 0 1 1.963-.384c.257 1.315.498 2.637.722 3.968zm-2.484-11.838a1 1 0 0 1-1.939.49 145.05 145.05 0 0 0-1.027-3.846 1 1 0 0 1 1.925-.542c.364 1.29.711 2.59 1.041 3.898zm-3.43-11.562a1 1 0 0 1-1.892.648c-.43-1.254-.876-2.5-1.338-3.739a1 1 0 1 1 1.873-.7c.47 1.256.922 2.52 1.357 3.791zm-4.389-11.267a1 1 0 1 1-1.832.802 145.14 145.14 0 0 0-1.645-3.618 1 1 0 0 1 1.81-.853 147.134 147.134 0 0 1 1.667 3.669zm-5.307-10.879a1 1 0 0 1-1.76.95 151.483 151.483 0 0 0-1.93-3.473 1 1 0 0 1 1.734-.994c.668 1.165 1.32 2.338 1.956 3.517zm-6.138-10.4a1 1 0 1 1-1.683 1.082 162.712 162.712 0 0 0-2.192-3.32 1 1 0 1 1 1.655-1.123 164.708 164.708 0 0 1 2.22 3.361zm-6.875-9.892a1 1 0 0 1-1.602 1.198 179.787 179.787 0 0 0-2.415-3.155 1 1 0 1 1 1.575-1.233 181.777 181.777 0 0 1 2.442 3.19zm-7.551-9.437a1 1 0 1 1-1.522 1.298 204.69 204.69 0 0 0-2.609-2.999 1 1 0 1 1 1.496-1.327c.893 1.006 1.77 2.015 2.635 3.028zm-8.074-8.939a1 1 0 0 1-1.448 1.38 241.04 241.04 0 0 0-2.776-2.864 1 1 0 1 1 1.424-1.404c.948.962 1.88 1.924 2.8 2.888zm-8.524-8.52a1 1 0 0 1-1.381 1.446c-.952-.91-1.919-1.82-2.901-2.734a1 1 0 1 1 1.362-1.465c.989.92 1.962 1.837 2.92 2.753zm-8.877-8.161a1 1 0 0 1-1.327 1.496c-.982-.871-1.98-1.747-2.997-2.632a1 1 0 1 1 1.312-1.51c1.022.89 2.025 1.77 3.012 2.646zm-9.105-7.852a1 1 0 1 1-1.287 1.531 634.165 634.165 0 0 0-3.067-2.562 1 1 0 1 1 1.278-1.539c1.055.877 2.077 1.73 3.076 2.57zm-9.256-7.653a1 1 0 1 1-1.265 1.55c-.943-.77-1.92-1.567-3.1-2.526a1 1 0 0 1 1.262-1.551c1.18.96 2.16 1.757 3.103 2.527zm-9.294-7.564a1 1 0 1 1-1.265 1.55c-1.123-.917-2.137-1.747-3.1-2.538a1 1 0 1 1 1.27-1.545c.96.79 1.973 1.618 3.095 2.533zm-9.235-7.65a1 1 0 0 1-1.293 1.526 338.387 338.387 0 0 1-3.046-2.611 1 1 0 0 1 1.311-1.51c.967.84 1.974 1.702 3.028 2.595zm-8.949-7.905a1 1 0 0 1-1.363 1.464 163.678 163.678 0 0 1-2.913-2.779 1 1 0 1 1 1.398-1.43c.918.899 1.876 1.812 2.878 2.745zm-8.372-8.474a1 1 0 0 1-1.494 1.33 86.231 86.231 0 0 1-2.622-3.08 1 1 0 0 1 1.555-1.26 84.236 84.236 0 0 0 2.56 3.01zm-7.144-9.42a1 1 0 0 1-1.703 1.048 47.217 47.217 0 0 1-1.993-3.567 1 1 0 0 1 1.788-.897 45.221 45.221 0 0 0 1.908 3.416zm-4.647-10.728a1 1 0 1 1-1.943.477 31.403 31.403 0 0 1-.722-4.07 1 1 0 0 1 1.988-.217c.14 1.274.366 2.543.677 3.81zm-.469-11.578a1 1 0 0 1-1.974-.317c.213-1.33.513-2.67.9-4.02a1 1 0 1 1 1.922.55 32.567 32.567 0 0 0-.848 3.787zm3.751-11.051a1 1 0 0 1-1.782-.908 54.964 54.964 0 0 1 1.987-3.557 1 1 0 1 1 1.71 1.038 52.967 52.967 0 0 0-1.915 3.427zm6.372-9.864a1 1 0 0 1-1.58-1.225 90.797 90.797 0 0 1 2.55-3.14 1 1 0 0 1 1.524 1.295 88.798 88.798 0 0 0-2.494 3.07zm7.84-8.91a1 1 0 1 1-1.43-1.4 141.1 141.1 0 0 1 2.86-2.837 1 1 0 1 1 1.39 1.44c-.976.94-1.916 1.872-2.82 2.796z"/>
</svg>
